<svg xmlns="http://www.w3.org/2000/svg" xmlns:xlink="http://www.w3.org/1999/xlink" width="500" zoomAndPan="magnify" viewBox="0 0 375 374.999991" height="500" preserveAspectRatio="xMidYMid meet" version="1.0"><defs><linearGradient x1="0" gradientTransform="matrix(0.75, 0, 0, 0.75, 0.0000045, 0)" y1="250" x2="499.999979" gradientUnits="userSpaceOnUse" y2="250" id="49c08dfb13"><stop stop-opacity="1" stop-color="rgb(100%, 100%, 100%)" offset="0"/><stop stop-opacity="1" stop-color="rgb(99.845886%, 99.845886%, 99.845886%)" offset="0.0078125"/><stop stop-opacity="1" stop-color="rgb(99.539185%, 99.539185%, 99.539185%)" offset="0.015625"/><stop stop-opacity="1" stop-color="rgb(99.232483%, 99.232483%, 99.232483%)" offset="0.0234375"/><stop stop-opacity="1" stop-color="rgb(98.927307%, 98.927307%, 98.927307%)" offset="0.03125"/><stop stop-opacity="1" stop-color="rgb(98.620605%, 98.620605%, 98.620605%)" offset="0.0390625"/><stop stop-opacity="1" stop-color="rgb(98.313904%, 98.313904%, 98.313904%)" offset="0.046875"/><stop stop-opacity="1" stop-color="rgb(98.008728%, 98.008728%, 98.008728%)" offset="0.0546875"/><stop stop-opacity="1" stop-color="rgb(97.702026%, 97.702026%, 97.702026%)" offset="0.0625"/><stop stop-opacity="1" stop-color="rgb(97.395325%, 97.395325%, 97.395325%)" offset="0.0703125"/><stop stop-opacity="1" stop-color="rgb(97.088623%, 97.088623%, 97.088623%)" offset="0.078125"/><stop stop-opacity="1" stop-color="rgb(96.783447%, 96.783447%, 96.783447%)" offset="0.0859375"/><stop stop-opacity="1" stop-color="rgb(96.476746%, 96.476746%, 96.476746%)" offset="0.09375"/><stop stop-opacity="1" stop-color="rgb(96.170044%, 96.170044%, 96.170044%)" offset="0.101562"/><stop stop-opacity="1" stop-color="rgb(95.864868%, 95.864868%, 95.864868%)" offset="0.109375"/><stop stop-opacity="1" stop-color="rgb(95.558167%, 95.558167%, 95.558167%)" offset="0.117188"/><stop stop-opacity="1" stop-color="rgb(95.251465%, 95.251465%, 95.251465%)" offset="0.125"/><stop stop-opacity="1" stop-color="rgb(94.946289%, 94.946289%, 94.946289%)" offset="0.132812"/><stop stop-opacity="1" stop-color="rgb(94.639587%, 94.639587%, 94.639587%)" offset="0.140625"/><stop stop-opacity="1" stop-color="rgb(94.332886%, 94.332886%, 94.332886%)" offset="0.148437"/><stop stop-opacity="1" stop-color="rgb(94.026184%, 94.026184%, 94.026184%)" offset="0.15625"/><stop stop-opacity="1" stop-color="rgb(93.721008%, 93.721008%, 93.721008%)" offset="0.164062"/><stop stop-opacity="1" stop-color="rgb(93.414307%, 93.414307%, 93.414307%)" offset="0.171875"/><stop stop-opacity="1" stop-color="rgb(93.107605%, 93.107605%, 93.107605%)" offset="0.179687"/><stop stop-opacity="1" stop-color="rgb(92.802429%, 92.802429%, 92.802429%)" offset="0.1875"/><stop stop-opacity="1" stop-color="rgb(92.495728%, 92.495728%, 92.495728%)" offset="0.195312"/><stop stop-opacity="1" stop-color="rgb(92.189026%, 92.189026%, 92.189026%)" offset="0.203125"/><stop stop-opacity="1" stop-color="rgb(91.882324%, 91.882324%, 91.882324%)" offset="0.210938"/><stop stop-opacity="1" stop-color="rgb(91.577148%, 91.577148%, 91.577148%)" offset="0.21875"/><stop stop-opacity="1" stop-color="rgb(91.270447%, 91.270447%, 91.270447%)" offset="0.226562"/><stop stop-opacity="1" stop-color="rgb(90.963745%, 90.963745%, 90.963745%)" offset="0.234375"/><stop stop-opacity="1" stop-color="rgb(90.658569%, 90.658569%, 90.658569%)" offset="0.242188"/><stop stop-opacity="1" stop-color="rgb(90.351868%, 90.351868%, 90.351868%)" offset="0.25"/><stop stop-opacity="1" stop-color="rgb(90.045166%, 90.045166%, 90.045166%)" offset="0.257812"/><stop stop-opacity="1" stop-color="rgb(89.73999%, 89.73999%, 89.73999%)" offset="0.265625"/><stop stop-opacity="1" stop-color="rgb(89.433289%, 89.433289%, 89.433289%)" offset="0.273437"/><stop stop-opacity="1" stop-color="rgb(89.126587%, 89.126587%, 89.126587%)" offset="0.28125"/><stop stop-opacity="1" stop-color="rgb(88.819885%, 88.819885%, 88.819885%)" offset="0.289062"/><stop stop-opacity="1" stop-color="rgb(88.514709%, 88.514709%, 88.514709%)" offset="0.296875"/><stop stop-opacity="1" stop-color="rgb(88.208008%, 88.208008%, 88.208008%)" offset="0.304687"/><stop stop-opacity="1" stop-color="rgb(87.901306%, 87.901306%, 87.901306%)" offset="0.3125"/><stop stop-opacity="1" stop-color="rgb(87.59613%, 87.59613%, 87.59613%)" offset="0.320312"/><stop stop-opacity="1" stop-color="rgb(87.289429%, 87.289429%, 87.289429%)" offset="0.328125"/><stop stop-opacity="1" stop-color="rgb(86.982727%, 86.982727%, 86.982727%)" offset="0.335937"/><stop stop-opacity="1" stop-color="rgb(86.677551%, 86.677551%, 86.677551%)" offset="0.34375"/><stop stop-opacity="1" stop-color="rgb(86.37085%, 86.37085%, 86.37085%)" offset="0.351562"/><stop stop-opacity="1" stop-color="rgb(86.064148%, 86.064148%, 86.064148%)" offset="0.359375"/><stop stop-opacity="1" stop-color="rgb(85.757446%, 85.757446%, 85.757446%)" offset="0.367187"/><stop stop-opacity="1" stop-color="rgb(85.452271%, 85.452271%, 85.452271%)" offset="0.375"/><stop stop-opacity="1" stop-color="rgb(85.145569%, 85.145569%, 85.145569%)" offset="0.382812"/><stop stop-opacity="1" stop-color="rgb(84.838867%, 84.838867%, 84.838867%)" offset="0.390625"/><stop stop-opacity="1" stop-color="rgb(84.533691%, 84.533691%, 84.533691%)" offset="0.398438"/><stop stop-opacity="1" stop-color="rgb(84.22699%, 84.22699%, 84.22699%)" offset="0.40625"/><stop stop-opacity="1" stop-color="rgb(83.920288%, 83.920288%, 83.920288%)" offset="0.414062"/><stop stop-opacity="1" stop-color="rgb(83.613586%, 83.613586%, 83.613586%)" offset="0.421875"/><stop stop-opacity="1" stop-color="rgb(83.308411%, 83.308411%, 83.308411%)" offset="0.429688"/><stop stop-opacity="1" stop-color="rgb(83.001709%, 83.001709%, 83.001709%)" offset="0.4375"/><stop stop-opacity="1" stop-color="rgb(82.695007%, 82.695007%, 82.695007%)" offset="0.445312"/><stop stop-opacity="1" stop-color="rgb(82.389832%, 82.389832%, 82.389832%)" offset="0.453125"/><stop stop-opacity="1" stop-color="rgb(82.08313%, 82.08313%, 82.08313%)" offset="0.460938"/><stop stop-opacity="1" stop-color="rgb(81.776428%, 81.776428%, 81.776428%)" offset="0.46875"/><stop stop-opacity="1" stop-color="rgb(81.471252%, 81.471252%, 81.471252%)" offset="0.476562"/><stop stop-opacity="1" stop-color="rgb(81.164551%, 81.164551%, 81.164551%)" offset="0.484375"/><stop stop-opacity="1" stop-color="rgb(80.857849%, 80.857849%, 80.857849%)" offset="0.492188"/><stop stop-opacity="1" stop-color="rgb(80.551147%, 80.551147%, 80.551147%)" offset="0.5"/><stop stop-opacity="1" stop-color="rgb(80.245972%, 80.245972%, 80.245972%)" offset="0.507812"/><stop stop-opacity="1" stop-color="rgb(79.93927%, 79.93927%, 79.93927%)" offset="0.515625"/><stop stop-opacity="1" stop-color="rgb(79.632568%, 79.632568%, 79.632568%)" offset="0.523437"/><stop stop-opacity="1" stop-color="rgb(79.327393%, 79.327393%, 79.327393%)" offset="0.53125"/><stop stop-opacity="1" stop-color="rgb(79.020691%, 79.020691%, 79.020691%)" offset="0.539062"/><stop stop-opacity="1" stop-color="rgb(78.713989%, 78.713989%, 78.713989%)" offset="0.546875"/><stop stop-opacity="1" stop-color="rgb(78.408813%, 78.408813%, 78.408813%)" offset="0.554687"/><stop stop-opacity="1" stop-color="rgb(78.102112%, 78.102112%, 78.102112%)" offset="0.5625"/><stop stop-opacity="1" stop-color="rgb(77.79541%, 77.79541%, 77.79541%)" offset="0.570312"/><stop stop-opacity="1" stop-color="rgb(77.488708%, 77.488708%, 77.488708%)" offset="0.578125"/><stop stop-opacity="1" stop-color="rgb(77.183533%, 77.183533%, 77.183533%)" offset="0.585937"/><stop stop-opacity="1" stop-color="rgb(76.876831%, 76.876831%, 76.876831%)" offset="0.59375"/><stop stop-opacity="1" stop-color="rgb(76.570129%, 76.570129%, 76.570129%)" offset="0.601562"/><stop stop-opacity="1" stop-color="rgb(76.264954%, 76.264954%, 76.264954%)" offset="0.609375"/><stop stop-opacity="1" stop-color="rgb(75.958252%, 75.958252%, 75.958252%)" offset="0.617187"/><stop stop-opacity="1" stop-color="rgb(75.65155%, 75.65155%, 75.65155%)" offset="0.625"/><stop stop-opacity="1" stop-color="rgb(75.344849%, 75.344849%, 75.344849%)" offset="0.632812"/><stop stop-opacity="1" stop-color="rgb(75.039673%, 75.039673%, 75.039673%)" offset="0.640625"/><stop stop-opacity="1" stop-color="rgb(74.732971%, 74.732971%, 74.732971%)" offset="0.648437"/><stop stop-opacity="1" stop-color="rgb(74.42627%, 74.42627%, 74.42627%)" offset="0.65625"/><stop stop-opacity="1" stop-color="rgb(74.121094%, 74.121094%, 74.121094%)" offset="0.664062"/><stop stop-opacity="1" stop-color="rgb(73.814392%, 73.814392%, 73.814392%)" offset="0.671875"/><stop stop-opacity="1" stop-color="rgb(73.50769%, 73.50769%, 73.50769%)" offset="0.679687"/><stop stop-opacity="1" stop-color="rgb(73.202515%, 73.202515%, 73.202515%)" offset="0.6875"/><stop stop-opacity="1" stop-color="rgb(72.895813%, 72.895813%, 72.895813%)" offset="0.695312"/><stop stop-opacity="1" stop-color="rgb(72.589111%, 72.589111%, 72.589111%)" offset="0.703125"/><stop stop-opacity="1" stop-color="rgb(72.28241%, 72.28241%, 72.28241%)" offset="0.710937"/><stop stop-opacity="1" stop-color="rgb(71.977234%, 71.977234%, 71.977234%)" offset="0.71875"/><stop stop-opacity="1" stop-color="rgb(71.670532%, 71.670532%, 71.670532%)" offset="0.726562"/><stop stop-opacity="1" stop-color="rgb(71.363831%, 71.363831%, 71.363831%)" offset="0.734375"/><stop stop-opacity="1" stop-color="rgb(71.058655%, 71.058655%, 71.058655%)" offset="0.742187"/><stop stop-opacity="1" stop-color="rgb(70.751953%, 70.751953%, 70.751953%)" offset="0.75"/><stop stop-opacity="1" stop-color="rgb(70.445251%, 70.445251%, 70.445251%)" offset="0.757812"/><stop stop-opacity="1" stop-color="rgb(70.140076%, 70.140076%, 70.140076%)" offset="0.765625"/><stop stop-opacity="1" stop-color="rgb(69.833374%, 69.833374%, 69.833374%)" offset="0.773438"/><stop stop-opacity="1" stop-color="rgb(69.526672%, 69.526672%, 69.526672%)" offset="0.78125"/><stop stop-opacity="1" stop-color="rgb(69.219971%, 69.219971%, 69.219971%)" offset="0.789062"/><stop stop-opacity="1" stop-color="rgb(68.914795%, 68.914795%, 68.914795%)" offset="0.796875"/><stop stop-opacity="1" stop-color="rgb(68.608093%, 68.608093%, 68.608093%)" offset="0.804688"/><stop stop-opacity="1" stop-color="rgb(68.301392%, 68.301392%, 68.301392%)" offset="0.8125"/><stop stop-opacity="1" stop-color="rgb(67.996216%, 67.996216%, 67.996216%)" offset="0.820312"/><stop stop-opacity="1" stop-color="rgb(67.689514%, 67.689514%, 67.689514%)" offset="0.828125"/><stop stop-opacity="1" stop-color="rgb(67.382812%, 67.382812%, 67.382812%)" offset="0.835938"/><stop stop-opacity="1" stop-color="rgb(67.076111%, 67.076111%, 67.076111%)" offset="0.84375"/><stop stop-opacity="1" stop-color="rgb(66.770935%, 66.770935%, 66.770935%)" offset="0.851562"/><stop stop-opacity="1" stop-color="rgb(66.464233%, 66.464233%, 66.464233%)" offset="0.859375"/><stop stop-opacity="1" stop-color="rgb(66.157532%, 66.157532%, 66.157532%)" offset="0.867188"/><stop stop-opacity="1" stop-color="rgb(65.852356%, 65.852356%, 65.852356%)" offset="0.875"/><stop stop-opacity="1" stop-color="rgb(65.545654%, 65.545654%, 65.545654%)" offset="0.882812"/><stop stop-opacity="1" stop-color="rgb(65.238953%, 65.238953%, 65.238953%)" offset="0.890625"/><stop stop-opacity="1" stop-color="rgb(64.933777%, 64.933777%, 64.933777%)" offset="0.898438"/><stop stop-opacity="1" stop-color="rgb(64.627075%, 64.627075%, 64.627075%)" offset="0.90625"/><stop stop-opacity="1" stop-color="rgb(64.320374%, 64.320374%, 64.320374%)" offset="0.914062"/><stop stop-opacity="1" stop-color="rgb(64.013672%, 64.013672%, 64.013672%)" offset="0.921875"/><stop stop-opacity="1" stop-color="rgb(63.708496%, 63.708496%, 63.708496%)" offset="0.929688"/><stop stop-opacity="1" stop-color="rgb(63.401794%, 63.401794%, 63.401794%)" offset="0.9375"/><stop stop-opacity="1" stop-color="rgb(63.095093%, 63.095093%, 63.095093%)" offset="0.945312"/><stop stop-opacity="1" stop-color="rgb(62.789917%, 62.789917%, 62.789917%)" offset="0.953125"/><stop stop-opacity="1" stop-color="rgb(62.483215%, 62.483215%, 62.483215%)" offset="0.960938"/><stop stop-opacity="1" stop-color="rgb(62.176514%, 62.176514%, 62.176514%)" offset="0.96875"/><stop stop-opacity="1" stop-color="rgb(61.871338%, 61.871338%, 61.871338%)" offset="0.976562"/><stop stop-opacity="1" stop-color="rgb(61.564636%, 61.564636%, 61.564636%)" offset="0.984375"/><stop stop-opacity="1" stop-color="rgb(61.257935%, 61.257935%, 61.257935%)" offset="0.992188"/><stop stop-opacity="1" stop-color="rgb(60.951233%, 60.951233%, 60.951233%)" offset="1"/></linearGradient></defs><rect x="-37.5" fill="url(#49c08dfb13)" width="450" y="-37.499999" height="449.999989"/><rect x="-37.5" width="450" fill="#102542" y="-37.499999" height="449.999989" fill-opacity="1"/><path fill="#ffffff" d="M 261.015625 189.300781 C 262.171875 191.613281 263.132812 194.019531 263.519531 196.710938 C 263.710938 198.058594 263.808594 199.40625 263.613281 200.851562 C 263.519531 201.332031 263.421875 201.910156 263.324219 202.390625 C 266.980469 201.8125 269.097656 200.367188 269.097656 196.808594 C 270.351562 193.054688 270.445312 189.496094 269.964844 185.933594 C 267.945312 173.039062 255.53125 166.015625 244.464844 171.980469 C 229.164062 180.257812 214.535156 189.6875 200.003906 199.308594 C 196.539062 201.621094 195.480469 205.085938 196.539062 208.933594 C 197.792969 213.746094 200.292969 217.882812 204.144531 221.058594 C 207.609375 223.945312 211.265625 224.425781 215.402344 222.40625 C 221.464844 219.421875 227.527344 216.441406 233.589844 213.554688 C 241.960938 209.511719 250.238281 204.988281 259.378906 202.96875 C 260.535156 201.332031 261.113281 199.117188 261.015625 196.808594 C 260.917969 194.5 260.34375 192.191406 259.476562 189.878906 C 258.609375 187.570312 257.457031 185.453125 256.109375 183.433594 C 254.761719 181.410156 253.125 179.488281 251.105469 177.945312 C 253.316406 179.199219 255.144531 180.929688 256.78125 182.855469 C 258.417969 184.972656 259.859375 187.089844 261.015625 189.300781 Z M 207.414062 204.699219 C 207.800781 206.527344 208.378906 208.261719 209.148438 209.894531 C 209.339844 210.28125 209.53125 210.664062 209.820312 211.050781 C 210.011719 211.4375 210.207031 211.820312 210.496094 212.207031 C 210.78125 212.589844 210.976562 212.976562 211.265625 213.359375 C 211.554688 213.746094 211.839844 214.035156 212.128906 214.417969 L 212.613281 214.996094 C 212.804688 215.1875 212.898438 215.382812 213.09375 215.476562 C 213.382812 215.863281 213.765625 216.152344 214.054688 216.535156 C 214.730469 217.210938 215.5 217.882812 216.171875 218.652344 C 215.210938 218.363281 214.152344 218.074219 213.285156 217.59375 C 212.804688 217.304688 212.417969 217.113281 211.9375 216.824219 C 211.746094 216.726562 211.457031 216.535156 211.265625 216.4375 L 210.6875 215.957031 C 210.300781 215.574219 209.820312 215.285156 209.4375 214.898438 C 209.050781 214.515625 208.761719 214.128906 208.378906 213.648438 C 207.992188 213.265625 207.703125 212.78125 207.414062 212.300781 C 207.125 211.820312 206.835938 211.433594 206.644531 210.859375 C 205.683594 208.933594 205.203125 206.71875 205.203125 204.601562 C 205.203125 202.484375 205.683594 200.367188 206.742188 198.539062 C 206.742188 200.945312 206.933594 202.871094 207.414062 204.699219 Z M 207.414062 204.699219 " fill-opacity="1" fill-rule="nonzero"/><path fill="#ffffff" d="M 265.539062 233.472656 C 264.960938 234.628906 264.289062 235.78125 263.519531 236.839844 C 263.421875 237.226562 263.132812 237.609375 262.75 237.898438 C 262.074219 238.765625 261.402344 239.535156 260.632812 240.402344 L 259.957031 241.074219 C 259.859375 241.84375 260.148438 242.710938 260.632812 243.671875 C 261.304688 245.019531 261.785156 246.558594 262.265625 248.003906 C 263.710938 251.757812 264.671875 252.046875 267.65625 249.15625 C 271.792969 245.117188 274.96875 240.496094 276.796875 234.050781 C 278.335938 229.625 276.507812 224.523438 275.546875 219.421875 C 272.949219 205.855469 268.136719 203.0625 255.144531 207.585938 C 241.191406 212.492188 228.488281 219.710938 215.5 226.734375 C 210.878906 229.238281 210.011719 232.992188 211.648438 238.765625 C 213.285156 244.441406 216.363281 247.136719 221.65625 247.042969 C 223.003906 247.042969 224.253906 246.945312 225.601562 246.847656 L 225.121094 246.269531 C 224.738281 245.886719 224.449219 245.5 224.0625 245.117188 L 223.195312 243.867188 C 222.910156 243.480469 222.621094 243 222.425781 242.519531 C 222.234375 242.035156 221.945312 241.652344 221.753906 241.074219 C 220.886719 239.148438 220.503906 237.128906 220.40625 235.109375 C 220.308594 233.085938 220.597656 231.066406 221.175781 229.140625 C 220.792969 231.066406 220.792969 233.085938 221.078125 235.011719 C 221.367188 236.9375 222.042969 238.765625 223.003906 240.402344 C 223.195312 240.785156 223.484375 241.171875 223.773438 241.554688 C 224.0625 241.941406 224.253906 242.324219 224.640625 242.710938 L 225.601562 243.769531 L 226.660156 244.730469 L 227.140625 245.210938 C 227.335938 245.40625 227.527344 245.5 227.71875 245.597656 L 228.875 246.367188 C 235.804688 245.210938 242.441406 242.613281 249.179688 240.496094 C 253.027344 239.246094 256.683594 237.226562 260.4375 235.6875 C 261.496094 234.628906 262.460938 233.570312 263.324219 232.316406 C 264.769531 230.296875 265.828125 227.988281 266.308594 225.390625 C 266.789062 222.886719 266.597656 220.191406 265.828125 217.691406 C 266.980469 220.097656 267.65625 222.789062 267.558594 225.582031 C 267.558594 228.277344 266.789062 230.96875 265.539062 233.472656 Z M 265.539062 233.472656 " fill-opacity="1" fill-rule="nonzero"/><path fill="#ffffff" d="M 56.8125 251.277344 C 46.417969 258.683594 27.847656 272.15625 22.457031 276.199219 C 22.554688 276.296875 22.554688 276.488281 22.652344 276.585938 C 52.675781 261.285156 110.027344 233.085938 110.027344 233.085938 C 83.277344 250.699219 56.429688 268.308594 28.519531 286.59375 C 41.511719 307.472656 57.96875 324.894531 76.636719 338.652344 C 97.710938 323.0625 118.976562 308.050781 142.84375 296.695312 C 144.863281 295.734375 144.960938 294.773438 143.324219 293.328125 C 141.59375 291.691406 140.246094 289.863281 139.28125 287.84375 C 111.855469 300.738281 72.210938 318.542969 60.085938 323.929688 L 59.796875 323.449219 C 85.007812 307.859375 110.222656 292.269531 135.433594 276.585938 C 135.144531 275.816406 134.953125 275.140625 134.664062 274.371094 C 120.324219 280.242188 94.726562 289.769531 94.535156 289.382812 C 103.773438 282.550781 113.109375 275.816406 122.347656 268.980469 C 122.152344 268.695312 122.058594 268.40625 121.867188 268.117188 C 98.769531 279.472656 52 301.316406 52 301.316406 C 75.097656 285.628906 98.289062 269.847656 122.636719 253.296875 C 120.519531 250.792969 118.113281 248.484375 115.515625 246.367188 C 114.550781 245.597656 113.109375 244.441406 113.972656 243.191406 C 115.03125 241.652344 116.574219 242.902344 117.726562 243.671875 C 123.019531 247.234375 127.351562 251.660156 130.71875 257.144531 C 135.53125 264.941406 140.246094 272.542969 143.035156 281.394531 C 143.324219 282.453125 143.710938 283.417969 144.191406 284.28125 C 144.863281 284.570312 145.539062 284.765625 146.210938 284.957031 C 149.097656 285.726562 152.273438 285.535156 155.257812 284.765625 C 158.242188 283.992188 161.222656 282.648438 163.917969 281.011719 C 166.710938 279.375 169.308594 277.449219 171.808594 275.429688 C 169.5 277.738281 167.09375 279.855469 164.398438 281.78125 C 161.800781 283.707031 158.914062 285.339844 155.738281 286.496094 C 152.660156 287.554688 149.292969 288.132812 145.921875 287.554688 C 146.117188 287.84375 146.40625 288.132812 146.597656 288.421875 C 147.847656 289.285156 149.097656 290.054688 150.542969 290.632812 C 152.46875 291.402344 154.390625 291.691406 156.507812 291.691406 C 158.53125 291.691406 160.648438 291.210938 162.667969 290.539062 C 164.6875 289.863281 166.710938 288.902344 168.632812 287.84375 C 172.484375 285.726562 176.140625 283.320312 179.894531 280.820312 C 183.644531 278.414062 187.300781 275.910156 191.25 273.792969 C 187.496094 276.199219 183.933594 278.796875 180.375 281.492188 C 176.8125 284.1875 173.347656 286.882812 169.5 289.285156 C 167.574219 290.441406 165.554688 291.597656 163.4375 292.460938 C 162.667969 292.75 161.898438 293.136719 161.03125 293.328125 C 161.707031 293.230469 162.378906 293.230469 163.050781 293.136719 C 172.867188 291.691406 182.683594 290.058594 192.402344 287.84375 C 200.96875 285.824219 209.242188 283.128906 217.230469 279.375 C 219.734375 278.21875 220.597656 276.871094 219.636719 274.179688 C 216.460938 265.230469 213.382812 256.28125 210.300781 247.328125 C 208.089844 240.882812 203.566406 236.261719 199.042969 231.644531 C 198.65625 231.257812 197.984375 230.777344 197.597656 230.875 C 196.734375 231.066406 196.925781 232.027344 196.925781 232.703125 C 197.023438 234.722656 197.117188 236.746094 197.214844 238.765625 C 197.3125 242.230469 197.3125 245.597656 196.734375 249.0625 C 196.539062 249.929688 196.347656 251.273438 195.289062 251.273438 C 193.847656 251.273438 193.847656 249.929688 193.847656 248.871094 C 193.75 246.65625 193.847656 244.347656 193.75 242.132812 C 193.460938 236.167969 192.308594 230.394531 189.996094 224.90625 C 189.324219 223.464844 188.648438 221.539062 186.628906 221.730469 C 184.800781 221.925781 184.320312 223.65625 183.933594 225.101562 C 183.355469 226.832031 182.972656 228.566406 182.492188 230.199219 C 182.203125 231.066406 182.296875 232.511719 181.046875 232.316406 C 179.605469 232.222656 179.988281 230.683594 179.988281 229.71875 C 179.988281 228.566406 180.179688 227.410156 180.277344 226.160156 C 180.375 223.175781 181.144531 220.289062 180.46875 217.304688 C 180.085938 215.863281 179.316406 214.609375 177.679688 214.417969 C 176.234375 214.226562 175.660156 215.382812 175.082031 216.441406 C 171.617188 222.886719 166.324219 227.890625 161.609375 233.28125 C 161.03125 233.859375 160.359375 234.339844 159.683594 234.820312 C 159.203125 235.203125 158.53125 235.398438 158.046875 234.914062 C 157.566406 234.433594 157.757812 233.761719 158.046875 233.28125 C 158.914062 231.742188 159.78125 230.199219 160.742188 228.660156 C 163.820312 224.042969 166.804688 219.328125 169.113281 214.226562 C 173.15625 205.566406 173.445312 197.289062 168.632812 187.859375 C 167.09375 184.875 165.457031 181.988281 163.726562 179.199219 C 158.914062 171.691406 155.929688 163.609375 155.257812 154.5625 C 155.160156 152.734375 154.488281 150.90625 154.101562 148.980469 C 153.429688 146 151.503906 144.746094 148.519531 144.457031 C 143.324219 143.976562 138.128906 144.457031 132.933594 144.941406 C 131.96875 145.035156 130.332031 145.613281 130.046875 144.457031 C 129.660156 143.015625 131.390625 142.824219 132.449219 142.4375 C 137.070312 140.609375 141.882812 140.417969 146.789062 140.320312 C 149.097656 140.320312 149.292969 139.550781 147.945312 137.820312 C 145.441406 134.738281 142.363281 132.332031 139.1875 130.023438 C 137.839844 129.0625 136.492188 128.097656 135.53125 126.65625 C 135.144531 126.175781 135.050781 125.5 135.53125 125.019531 C 135.914062 124.632812 136.394531 124.921875 136.78125 125.210938 C 141.113281 128.867188 146.691406 130.792969 150.734375 134.929688 C 151.3125 135.507812 151.792969 136.855469 152.851562 136.375 C 153.238281 136.183594 153.332031 134.929688 153.332031 134.066406 C 153.621094 131.082031 154.296875 128.195312 156.605469 126.078125 C 157.566406 125.117188 158.816406 123.671875 160.261719 124.632812 C 161.609375 125.597656 160.359375 127.039062 159.875 128.097656 C 156.605469 135.027344 157.085938 141.667969 161.128906 148.019531 C 164.6875 153.601562 169.019531 158.410156 174.601562 162.070312 C 184.222656 168.324219 192.5 169.574219 200.679688 165.050781 L 189.515625 145.804688 C 188.457031 143.976562 187.878906 142.246094 187.878906 140.707031 C 187.878906 139.164062 188.359375 137.820312 189.132812 136.664062 C 189.613281 135.894531 190.285156 135.21875 190.863281 134.644531 C 191.730469 133.777344 192.691406 133.101562 193.652344 132.429688 C 194.519531 131.753906 195.480469 131.179688 196.253906 130.601562 C 194.328125 125.886719 192.59375 121.074219 190.863281 116.261719 C 187.109375 106.253906 181.046875 102.695312 170.460938 103.65625 C 169.019531 103.753906 167.671875 103.945312 166.226562 104.328125 C 159.589844 105.871094 152.851562 106.253906 146.117188 106.351562 C 142.074219 106.351562 138.03125 106.351562 134.085938 106.832031 C 123.886719 107.890625 117.148438 113.761719 114.359375 123.574219 C 113.6875 125.886719 113.203125 128.195312 113.109375 130.503906 C 112.433594 139.359375 110.796875 148.113281 108.394531 156.679688 C 105.023438 168.421875 102.8125 180.449219 100.886719 192.476562 C 99.925781 198.347656 99.925781 204.3125 101.558594 210.089844 C 103.964844 218.269531 108.96875 224.332031 115.320312 229.140625 C 115.320312 229.140625 103.582031 227.792969 94.726562 210.375 C 93.378906 207.777344 92.226562 207.488281 89.917969 208.933594 C 81.832031 214.128906 73.652344 219.132812 65.570312 224.234375 C 52.195312 232.605469 29.386719 246.367188 13.605469 256.085938 C 14.953125 259.550781 16.492188 263.015625 18.128906 266.480469 C 31.890625 261.1875 45.457031 255.703125 56.8125 251.277344 Z M 149.292969 171.113281 C 150.351562 173.425781 151.601562 175.734375 153.042969 177.945312 C 153.71875 179.003906 154.390625 180.160156 155.160156 181.316406 C 155.835938 182.46875 156.605469 183.625 157.183594 184.78125 C 157.855469 185.933594 158.433594 187.183594 159.105469 188.339844 C 159.683594 189.589844 160.261719 190.84375 160.742188 192.09375 C 161.707031 194.691406 162.378906 197.480469 162.476562 200.273438 C 162.667969 203.0625 162.28125 205.855469 161.511719 208.546875 C 160.742188 211.148438 159.589844 213.648438 158.144531 215.863281 C 159.683594 210.761719 160.550781 205.566406 159.683594 200.5625 C 159.300781 198.058594 158.53125 195.652344 157.566406 193.34375 C 157.085938 192.1875 156.507812 191.035156 155.929688 189.878906 C 155.355469 188.726562 154.679688 187.570312 154.007812 186.414062 C 152.753906 184.105469 151.410156 181.988281 150.0625 179.582031 C 148.714844 177.175781 147.558594 174.675781 146.691406 172.171875 C 144.863281 167.074219 143.902344 161.585938 144.289062 156.199219 C 145.441406 161.492188 146.980469 166.496094 149.292969 171.113281 Z M 118.691406 225.871094 C 114.359375 220.097656 110.605469 213.746094 108.488281 206.71875 C 107.429688 203.160156 106.851562 199.503906 106.757812 195.75 C 106.660156 191.996094 107.140625 188.339844 108.007812 184.78125 C 109.738281 177.660156 112.722656 171.308594 115.707031 164.761719 C 114.457031 171.789062 112.242188 178.621094 111.28125 185.355469 C 110.796875 188.726562 110.605469 192.1875 110.796875 195.460938 C 110.992188 198.828125 111.664062 202.101562 112.628906 205.371094 C 114.550781 211.820312 117.824219 217.980469 121.480469 223.847656 C 125.234375 229.71875 129.371094 235.398438 133.507812 241.171875 C 128.023438 236.648438 123.117188 231.546875 118.691406 225.871094 Z M 118.691406 225.871094 " fill-opacity="1" fill-rule="nonzero"/><path fill="#ffffff" d="M 182.203125 349.914062 C 211.457031 350.875 241.382812 343.945312 268.617188 328.261719 C 307.398438 305.839844 333.476562 269.847656 344.257812 229.71875 C 355.035156 189.589844 350.414062 145.421875 328.089844 106.640625 C 305.667969 67.859375 269.675781 41.78125 229.546875 31 C 189.417969 20.222656 145.25 24.84375 106.46875 47.167969 C 72.113281 66.992188 47.765625 97.496094 35.160156 132.042969 C 23.710938 163.417969 21.976562 198.058594 31.214844 231.164062 C 31.890625 233.472656 32.5625 235.6875 33.332031 237.996094 C 37.664062 235.398438 41.898438 232.800781 46.226562 230.199219 C 61.625 220.671875 77.214844 211.339844 92.707031 202.003906 C 94.535156 200.851562 95.496094 199.597656 95.785156 197.289062 C 97.710938 181.605469 100.789062 166.207031 105.890625 151.195312 C 108.105469 144.746094 109.164062 138.203125 109.835938 131.371094 C 110.992188 120.496094 114.839844 111.066406 125.714844 106.253906 C 130.238281 104.234375 135.242188 104.328125 140.054688 104.136719 C 145.632812 103.847656 151.214844 103.65625 156.699219 103.558594 C 158.816406 103.464844 206.453125 97.980469 208.183594 97.59375 C 213.957031 96.148438 219.539062 97.402344 224.542969 100.480469 C 231.28125 104.617188 236.1875 110.488281 239.269531 117.800781 C 241 121.746094 241.191406 125.886719 238.785156 129.734375 C 237.824219 131.371094 237.34375 132.71875 240.230469 132.238281 C 242.828125 131.757812 245.042969 132.621094 247.351562 133.875 C 253.992188 137.53125 264.191406 152.542969 260.824219 161.683594 C 258.707031 167.265625 260.726562 169.09375 264.578125 172.269531 C 272.660156 178.8125 274.007812 188.148438 271.699219 197.769531 C 270.734375 201.714844 270.0625 204.890625 273.910156 207.683594 C 275.449219 208.742188 276.21875 210.664062 276.894531 212.496094 C 278.820312 217.785156 280.359375 223.273438 280.359375 228.757812 C 280.453125 238.863281 275.160156 246.464844 267.558594 252.527344 C 265.921875 253.875 246.390625 263.402344 239.652344 267.632812 C 234.359375 271.003906 221.65625 281.394531 219.347656 282.550781 C 201.449219 291.5 182.011719 295.253906 162.476562 298.332031 C 159.492188 298.8125 156.507812 298.910156 153.621094 298.140625 C 150.925781 297.464844 148.90625 298.140625 146.691406 299.488281 C 132.257812 308.339844 117.917969 317.484375 103.871094 327.007812 C 106.082031 328.355469 108.296875 329.609375 110.605469 330.859375 C 132.449219 342.503906 157.085938 349.144531 182.203125 349.914062 Z M 204.527344 295.832031 C 205.492188 295.542969 206.453125 295.15625 207.320312 294.867188 L 212.707031 335.476562 Z M 200.292969 337.113281 L 195.675781 298.523438 C 196.636719 298.238281 197.503906 298.042969 198.464844 297.753906 Z M 213.09375 292.65625 C 214.054688 292.269531 215.015625 291.886719 215.980469 291.5 L 225.027344 332.878906 Z M 221.367188 289 C 221.65625 288.804688 221.945312 288.710938 222.332031 288.515625 C 222.621094 288.421875 222.8125 288.324219 222.910156 288.226562 C 223.292969 288.035156 223.582031 287.84375 223.871094 287.652344 C 223.96875 287.554688 224.0625 287.554688 224.160156 287.457031 L 237.054688 329.222656 Z M 228.875 283.992188 C 229.257812 283.707031 229.742188 283.320312 230.125 283.03125 C 230.605469 282.648438 231.089844 282.261719 231.570312 281.972656 L 248.699219 324.507812 Z M 235.804688 278.703125 C 236.378906 278.316406 236.863281 277.929688 237.4375 277.546875 C 237.824219 277.257812 238.210938 276.96875 238.59375 276.679688 L 259.859375 319.023438 Z M 242.828125 273.601562 C 243.019531 273.503906 243.117188 273.410156 243.308594 273.3125 C 243.886719 272.925781 244.65625 272.542969 245.523438 271.964844 C 245.617188 271.867188 245.714844 271.867188 245.8125 271.773438 L 270.640625 312.285156 Z M 250.335938 269.269531 C 250.71875 269.078125 251.199219 268.789062 251.585938 268.597656 C 252.164062 268.308594 252.738281 268.019531 253.316406 267.636719 L 280.742188 304.875 Z M 258.320312 265.132812 C 259.378906 264.652344 260.34375 264.074219 261.304688 263.59375 L 290.269531 296.792969 Z M 266.695312 260.707031 C 267.753906 260.128906 268.714844 259.648438 269.484375 259.167969 L 298.929688 287.746094 Z M 274.585938 255.316406 C 275.257812 254.644531 276.027344 253.96875 276.703125 253.296875 L 307.015625 278.027344 Z M 280.839844 248.292969 C 281.417969 247.523438 281.898438 246.753906 282.378906 245.984375 L 314.136719 267.730469 Z M 109.453125 59.871094 L 134.277344 97.691406 C 133.507812 97.785156 132.644531 97.785156 131.875 97.882812 C 131.488281 97.882812 131.105469 97.980469 130.71875 97.980469 Z M 124.558594 99.421875 C 123.984375 99.613281 123.308594 99.902344 122.730469 100.097656 C 122.441406 100.289062 122.058594 100.382812 121.769531 100.578125 L 99.058594 66.800781 Z M 116.285156 103.847656 C 115.515625 104.425781 114.746094 105.003906 114.070312 105.675781 L 89.242188 74.691406 Z M 109.835938 110.296875 C 109.257812 111.066406 108.679688 111.933594 108.199219 112.796875 L 80.101562 83.160156 Z M 71.824219 206.429688 L 39.203125 210.089844 L 77.695312 202.96875 C 75.769531 204.121094 73.847656 205.277344 71.824219 206.429688 Z M 88.761719 196.230469 L 37.855469 197.578125 L 89.242188 192.476562 C 89.148438 193.730469 88.953125 194.980469 88.761719 196.230469 Z M 89.917969 188.050781 L 37.566406 185.066406 L 90.492188 184.296875 C 90.300781 185.453125 90.109375 186.800781 89.917969 188.050781 Z M 91.265625 180.0625 L 38.335938 172.558594 L 92.035156 176.214844 C 91.746094 177.464844 91.550781 178.71875 91.265625 180.0625 Z M 93.667969 168.324219 C 93.378906 169.574219 93.09375 170.921875 92.804688 172.171875 L 40.070312 160.144531 Z M 94.632812 164.378906 L 42.957031 147.921875 L 95.691406 160.625 C 95.304688 161.78125 95.015625 163.128906 94.632812 164.378906 Z M 97.902344 152.832031 C 97.519531 154.082031 97.132812 155.332031 96.75 156.582031 L 46.804688 135.894531 Z M 99.15625 148.886719 L 51.617188 124.347656 L 100.308594 145.132812 C 100.019531 146.382812 99.636719 147.632812 99.15625 148.886719 Z M 102.042969 136.855469 C 101.847656 138.203125 101.65625 139.453125 101.367188 140.800781 L 57.488281 113.28125 Z M 102.8125 130.792969 C 102.8125 130.984375 102.714844 131.273438 102.714844 131.46875 L 64.125 102.5 L 103.195312 127.617188 C 103.003906 128.773438 102.90625 129.734375 102.8125 130.792969 Z M 105.507812 118.574219 C 105.507812 118.574219 105.410156 118.574219 105.507812 118.574219 C 105.121094 119.726562 104.734375 120.785156 104.449219 121.746094 L 71.730469 92.589844 Z M 140.148438 97.304688 L 120.421875 53.710938 L 144 97.113281 C 142.652344 97.207031 141.398438 97.304688 140.148438 97.304688 Z M 149.003906 97.015625 L 131.875 48.613281 L 153.042969 96.824219 C 151.695312 96.921875 150.351562 96.921875 149.003906 97.015625 Z M 160.164062 96.34375 C 159.011719 96.4375 158.144531 96.535156 157.472656 96.632812 L 143.804688 44.472656 L 161.511719 96.246094 C 160.933594 96.246094 160.550781 96.34375 160.164062 96.34375 Z M 165.363281 95.765625 L 155.835938 41.296875 L 169.402344 95.285156 C 167.960938 95.476562 166.613281 95.667969 165.363281 95.765625 Z M 173.253906 94.898438 L 168.25 39.179688 L 177.292969 94.417969 C 175.851562 94.609375 174.503906 94.804688 173.253906 94.898438 Z M 181.046875 94.035156 L 180.757812 38.121094 L 185.089844 93.550781 C 183.742188 93.746094 182.394531 93.839844 181.046875 94.035156 Z M 188.9375 93.070312 L 193.269531 38.027344 L 192.980469 92.589844 C 191.632812 92.78125 190.285156 92.976562 188.9375 93.070312 Z M 197.117188 92.109375 L 205.777344 39.085938 L 201.0625 91.628906 C 199.910156 91.820312 198.5625 91.917969 197.117188 92.109375 Z M 206.644531 90.953125 C 206.644531 90.953125 206.550781 90.953125 206.355469 90.953125 C 206.164062 90.953125 205.972656 91.050781 205.683594 91.050781 L 218.191406 41.105469 L 209.628906 90.28125 C 208.570312 90.472656 207.609375 90.664062 206.644531 90.953125 Z M 217.808594 90.570312 C 216.75 90.375 215.691406 90.28125 214.632812 90.183594 L 230.316406 44.183594 L 218.097656 90.664062 C 218 90.664062 217.90625 90.664062 217.808594 90.570312 Z M 223.003906 92.109375 L 242.25 48.324219 L 226.179688 93.648438 C 225.121094 93.070312 224.0625 92.589844 223.003906 92.109375 Z M 230.414062 96.246094 L 253.703125 53.421875 L 233.300781 98.554688 C 232.339844 97.691406 231.375 97.015625 230.414062 96.246094 Z M 236.765625 101.828125 L 264.578125 59.390625 L 239.269531 104.8125 C 238.59375 103.847656 237.726562 102.789062 236.765625 101.828125 Z M 242.925781 110.105469 C 242.636719 109.621094 242.347656 109.140625 242.058594 108.660156 L 275.160156 66.414062 L 244.175781 112.507812 C 243.789062 111.644531 243.308594 110.875 242.925781 110.105469 Z M 245.90625 116.261719 L 285.074219 74.113281 L 247.253906 121.363281 C 246.871094 119.535156 246.484375 117.898438 245.90625 116.261719 Z M 250.527344 127.808594 C 249.5625 127.234375 248.410156 126.753906 247.160156 126.269531 C 247.160156 125.980469 247.253906 125.789062 247.253906 125.5 L 294.214844 82.773438 L 251.105469 128.195312 C 250.910156 128.003906 250.71875 127.90625 250.527344 127.808594 Z M 254.183594 130.3125 C 253.992188 130.121094 253.703125 129.925781 253.414062 129.734375 L 302.589844 92.011719 L 256.78125 132.816406 C 255.914062 131.949219 255.050781 131.082031 254.183594 130.3125 Z M 258.707031 135.027344 L 310.191406 101.925781 L 261.402344 138.492188 C 260.535156 137.335938 259.667969 136.183594 258.707031 135.027344 Z M 263.324219 141.570312 C 263.230469 141.378906 263.132812 141.28125 263.035156 141.089844 L 316.925781 112.507812 L 265.058594 145.035156 C 264.578125 143.882812 264 142.726562 263.324219 141.570312 Z M 266.789062 149.269531 C 266.597656 148.789062 266.40625 148.210938 266.210938 147.730469 L 322.699219 123.578125 L 267.558594 152.15625 C 267.367188 151.195312 267.078125 150.230469 266.789062 149.269531 Z M 268.234375 157.929688 C 268.234375 156.871094 268.234375 155.910156 268.039062 154.949219 L 327.703125 135.21875 L 268.136719 159.855469 C 268.136719 159.183594 268.234375 158.605469 268.234375 157.929688 Z M 269.097656 167.074219 C 269.003906 166.976562 268.90625 166.878906 268.8125 166.785156 C 268.425781 166.398438 268.039062 166.109375 267.753906 165.917969 L 267.175781 163.992188 C 267.367188 163.511719 267.464844 163.03125 267.65625 162.550781 L 331.648438 147.152344 Z M 274.585938 173.039062 C 273.621094 171.597656 272.46875 170.25 271.214844 168.996094 L 334.535156 159.277344 Z M 276.21875 175.828125 L 336.363281 171.691406 L 277.953125 179.96875 C 277.472656 178.621094 276.894531 177.175781 276.21875 175.828125 Z M 279.394531 186.992188 C 279.300781 185.839844 279.109375 184.585938 278.914062 183.433594 L 337.230469 184.296875 L 279.492188 187.570312 C 279.394531 187.378906 279.394531 187.183594 279.394531 186.992188 Z M 279.394531 191.128906 L 336.941406 196.808594 L 279.011719 195.269531 C 279.203125 193.921875 279.394531 192.476562 279.394531 191.128906 Z M 279.109375 203.0625 C 278.722656 202.679688 278.242188 202.292969 277.761719 201.910156 C 277.761719 201.714844 277.855469 201.425781 277.855469 201.140625 C 277.953125 200.65625 278.050781 200.082031 278.242188 199.308594 C 278.335938 199.117188 278.335938 198.925781 278.335938 198.734375 L 335.59375 209.320312 Z M 283.148438 209.992188 C 282.957031 209.414062 282.570312 208.546875 282.1875 207.683594 L 333.285156 221.636719 L 283.824219 211.917969 C 283.628906 211.242188 283.4375 210.570312 283.148438 209.992188 Z M 286.421875 221.347656 C 286.230469 220.480469 286.132812 219.710938 285.941406 218.941406 C 285.84375 218.460938 285.746094 218.074219 285.554688 217.59375 L 329.917969 233.859375 Z M 287.09375 230.875 C 287.09375 230.105469 287.191406 229.335938 287.191406 228.46875 C 287.191406 228.179688 287.191406 227.890625 287.191406 227.507812 L 325.683594 245.40625 Z M 285.171875 240.113281 C 285.457031 239.246094 285.746094 238.476562 286.035156 237.609375 C 286.035156 237.515625 286.035156 237.515625 286.132812 237.417969 L 320.390625 256.953125 Z M 189.132812 300.160156 L 187.785156 337.691406 L 186.4375 300.835938 C 187.300781 300.546875 188.265625 300.351562 189.132812 300.160156 Z M 179.410156 302.183594 L 175.175781 337.113281 L 176.8125 302.664062 C 177.679688 302.566406 178.546875 302.375 179.410156 302.183594 Z M 169.308594 304.011719 L 162.765625 335.574219 L 166.902344 304.394531 C 167.671875 304.300781 168.441406 304.203125 169.308594 304.011719 Z M 157.757812 305.453125 C 158.046875 305.453125 158.335938 305.453125 158.625 305.453125 L 150.445312 333.070312 L 156.507812 305.453125 C 156.988281 305.453125 157.375 305.453125 157.757812 305.453125 Z M 147.175781 306.992188 L 138.417969 329.414062 L 144.863281 308.339844 C 145.730469 307.859375 146.5 307.472656 147.175781 306.992188 Z M 147.175781 306.992188 " fill-opacity="1" fill-rule="nonzero"/><path fill="#ffffff" d="M 250.238281 153.023438 C 251.394531 155.332031 252.355469 157.738281 252.738281 160.433594 C 252.933594 161.78125 253.027344 163.128906 252.835938 164.570312 C 252.738281 165.050781 252.644531 165.4375 252.546875 165.917969 C 256.398438 164.761719 258.03125 162.453125 258.417969 157.835938 C 259.089844 150.425781 251.394531 137.820312 244.367188 135.125 C 241.578125 134.066406 238.882812 134.257812 236.09375 135.414062 C 234.839844 135.988281 233.6875 136.566406 232.433594 137.144531 L 232.339844 137.242188 L 232.242188 137.242188 C 225.027344 140.996094 218.578125 145.902344 211.746094 150.136719 C 209.917969 151.195312 210.6875 152.445312 211.359375 153.792969 C 212.898438 156.96875 212.804688 160.242188 210.109375 162.644531 C 202.988281 169.191406 195.289062 174.195312 184.898438 171.019531 C 180.566406 169.671875 179.410156 170.539062 178.351562 174.769531 C 176.71875 181.121094 182.585938 193.246094 188.648438 195.847656 C 191.25 197 193.941406 196.90625 196.636719 195.847656 C 198.273438 195.171875 199.8125 194.304688 201.351562 193.441406 C 214.441406 185.839844 227.527344 178.140625 240.613281 170.539062 C 243.214844 169.09375 245.8125 167.648438 248.601562 166.878906 L 248.507812 166.785156 C 249.660156 165.148438 250.238281 162.933594 250.140625 160.625 C 250.046875 158.316406 249.46875 156.007812 248.601562 153.695312 C 247.734375 151.386719 246.582031 149.269531 245.234375 147.25 C 243.886719 145.226562 242.25 143.304688 240.230469 141.765625 C 242.445312 143.015625 244.273438 144.746094 245.90625 146.671875 C 247.640625 148.597656 249.082031 150.714844 250.238281 153.023438 Z M 190.574219 184.105469 C 190.765625 184.492188 190.960938 184.875 191.25 185.261719 C 191.441406 185.644531 191.632812 186.03125 191.921875 186.414062 C 192.210938 186.800781 192.402344 187.183594 192.691406 187.570312 C 192.980469 187.957031 193.269531 188.242188 193.558594 188.628906 L 194.039062 189.207031 C 194.230469 189.398438 194.328125 189.589844 194.519531 189.6875 C 194.808594 190.070312 195.195312 190.359375 195.480469 190.746094 C 196.15625 191.417969 196.925781 192.09375 197.597656 192.863281 C 196.636719 192.574219 195.578125 192.285156 194.710938 191.804688 C 194.230469 191.515625 193.847656 191.324219 193.367188 191.035156 C 193.171875 190.9375 192.882812 190.746094 192.691406 190.648438 L 192.113281 190.167969 C 191.730469 189.785156 191.25 189.496094 190.863281 189.109375 C 190.476562 188.726562 190.191406 188.339844 189.804688 187.859375 C 189.417969 187.472656 189.132812 186.992188 188.84375 186.511719 C 188.554688 186.03125 188.265625 185.644531 188.074219 185.066406 C 187.109375 183.144531 186.628906 180.929688 186.628906 178.8125 C 186.628906 176.695312 187.109375 174.578125 188.167969 172.75 C 188.265625 174.769531 188.457031 176.695312 188.84375 178.523438 C 189.226562 180.835938 189.804688 182.566406 190.574219 184.105469 Z M 190.574219 184.105469 " fill-opacity="1" fill-rule="nonzero"/><path fill="#ffffff" d="M 190.960938 138.300781 C 190.382812 139.070312 190.09375 139.839844 189.996094 140.800781 C 189.902344 142.050781 190.191406 143.496094 191.25 145.515625 C 195.289062 152.445312 200.679688 161.875 202.410156 164.761719 C 203.757812 163.898438 205.203125 162.839844 206.550781 161.585938 C 210.011719 158.605469 210.207031 157.449219 207.800781 153.40625 C 205.875 150.234375 203.949219 147.152344 202.121094 143.976562 C 200.199219 140.511719 198.464844 136.855469 196.925781 133.296875 C 196.058594 133.875 195.195312 134.546875 194.328125 135.125 C 192.980469 136.085938 191.730469 137.144531 190.960938 138.300781 Z M 190.960938 138.300781 " fill-opacity="1" fill-rule="nonzero"/><path fill="#ffffff" d="M 207.511719 107.699219 C 203.46875 110.875 200.101562 114.625 197.503906 119.148438 C 196.445312 120.882812 196.253906 122.613281 196.828125 124.539062 C 198.851562 130.984375 201.738281 137.144531 204.914062 143.015625 C 207.03125 146.960938 209.148438 147.632812 212.996094 145.226562 C 218.769531 141.667969 224.449219 138.105469 230.03125 134.355469 C 230.703125 132.910156 231.089844 131.179688 230.992188 129.351562 C 230.894531 127.039062 230.316406 124.730469 229.453125 122.421875 C 228.585938 120.113281 227.429688 117.996094 226.082031 115.972656 C 224.738281 113.953125 223.101562 112.027344 221.078125 110.488281 C 223.292969 111.738281 225.121094 113.472656 226.757812 115.398438 C 228.394531 117.320312 229.835938 119.4375 231.089844 121.746094 C 232.242188 124.058594 233.207031 126.464844 233.589844 129.15625 C 233.6875 130.023438 233.78125 130.890625 233.78125 131.851562 C 237.824219 128.773438 239.269531 124.25 237.246094 119.4375 C 233.398438 110.390625 226.660156 103.945312 218.578125 100.480469 C 214.246094 99.519531 211.070312 99.421875 207.992188 100.480469 C 206.164062 101.15625 205.777344 103.65625 207.511719 104.234375 C 212.417969 105.675781 208.378906 107.023438 207.511719 107.699219 Z M 207.511719 107.699219 " fill-opacity="1" fill-rule="nonzero"/><path fill="#e3b37a" d="M 349.933594 93.9375 C 298.160156 4.34375 183.550781 -26.351562 93.957031 25.324219 C 14.183594 71.417969 -18.921875 167.265625 11.296875 250.988281 C 17.261719 247.425781 24.769531 243 27.078125 241.652344 C 26.308594 239.4375 25.632812 237.128906 24.960938 234.820312 C 14.757812 199.695312 16.394531 162.839844 28.519531 129.640625 C 41.609375 93.648438 67.011719 61.796875 102.8125 41.203125 C 143.230469 17.816406 189.324219 13.101562 231.183594 24.265625 C 272.949219 35.429688 310.574219 62.660156 333.863281 103.078125 C 357.246094 143.496094 361.960938 189.589844 350.800781 231.453125 C 339.636719 273.214844 312.402344 310.84375 271.984375 334.128906 C 243.597656 350.488281 212.417969 357.707031 181.914062 356.746094 C 154.582031 355.878906 127.734375 348.277344 103.964844 334.804688 C 101.753906 333.554688 99.539062 332.207031 97.421875 330.859375 C 92.128906 334.515625 86.835938 338.269531 81.542969 342.023438 C 139.1875 381.476562 216.75 387.058594 281.222656 349.71875 C 370.914062 298.238281 401.609375 183.625 349.933594 93.9375 Z M 349.933594 93.9375 " fill-opacity="1" fill-rule="nonzero"/></svg>